<svg width="22" height="23" viewBox="0 0 22 23" fill="none" xmlns="http://www.w3.org/2000/svg">
<path d="M12.1295 0.451001L21.0662 8.94087C21.6624 9.50725 22 10.2935 22 11.1159V19.7572C22 21.138 20.8807 22.2572 19.5 22.2572H13.5C12.9477 22.2572 12.5 21.8095 12.5 21.2572V15.7571C12.5 14.9287 11.8284 14.2571 11 14.2571C10.1716 14.2571 9.5 14.9287 9.5 15.7571V21.2572C9.5 21.8095 9.05228 22.2572 8.5 22.2572H2.5C1.11929 22.2572 0 21.138 0 19.7572V11.1159C0 10.2935 0.33756 9.50725 0.933752 8.94087L9.87045 0.451001C10.5034 -0.150334 11.4966 -0.150334 12.1295 0.451001ZM11 2.13655L2.31125 10.3909C2.11252 10.5797 2 10.8418 2 11.1159V19.7572C2 20.0334 2.22386 20.2572 2.5 20.2572H7.5V15.7571C7.5 13.8241 9.067 12.2571 11 12.2571C12.933 12.2571 14.5 13.8241 14.5 15.7571V20.2572H19.5C19.7761 20.2572 20 20.0334 20 19.7572V11.1159C20 10.8418 19.8875 10.5797 19.6887 10.3909L11 2.13655Z" fill="#2D81E1"/>
</svg>
